<svg width="720" height="720" xmlns="http://www.w3.org/2000/svg">
  <defs>
    <linearGradient id="prefix__a" x1="0%" y1="50%" x2="100%" y2="0%">
      <stop offset="0" stop-color="#59C173" />
      <stop offset="50%" stop-color="#a17fe0" />
      <stop offset="100%" stop-color="#5D26C1" />
    </linearGradient>
    <clipPath id="cut-off-bottom">
      <path stroke="null" id="svg_3"
        d="m396.49495,50.79608q5.90473,14.94471 9.54946,21.42423q17.29615,30.67323 40.36639,57.1008q0.05225,0.06532 17.53129,19.39938q15.25823,16.87811 26.36225,28.66144q11.10402,11.77026 20.52285,22.44319q13.75592,15.61095 17.13938,19.72597q15.79384,19.16424 26.51902,40.94118q14.20008,28.88352 22.12966,61.60773q8.89628,36.72165 6.7016,74.48839q-4.3371,74.74966 -52.26728,131.57613l-9.81073,9.86298q-1.07121,1.07121 -0.62705,-0.39191q4.72901,-15.55869 7.55073,-31.62687q12.54101,-73.63926 -21.04539,-139.78004q-12.90679,-25.40861 -30.28132,-53.88717q-2.12936,-3.50103 -11.6135,-19.53001q-2.59965,-4.38935 -11.73107,-19.45163q-19.83048,-32.72421 -35.03645,-64.29882q-13.31176,-27.65555 -21.50261,-59.71351q-8.29536,-32.39762 -6.66241,-64.63847q0.83607,-16.65603 6.20519,-33.91299zm-66.57188,73.10888q-4.15421,27.76005 -13.49465,54.21375q-11.11709,29.58895 -26.19243,57.37513q-8.56969,15.8069 -17.51823,31.40479q-13.46853,22.27336 -26.78029,44.63817q-0.09144,0.15676 -8.76565,14.43523q-16.47314,27.17219 -29.44525,56.21248q-12.03153,27.78618 -15.9506,57.85849q-3.35733,22.27336 -1.56763,44.72961q2.19468,27.82537 9.9283,54.65791q0.75769,2.59965 -1.21491,0.74462q-12.65858,-11.94009 -22.63914,-26.89786q-43.50164,-65.18714 -38.17171,-144.10408q1.8289,-22.24723 7.89039,-47.0288q9.96749,-40.79748 30.42502,-75.44203q10.98645,-16.69522 23.84099,-32.00571q18.52412,-21.75082 42.15609,-46.95042q11.54818,-12.30587 30.99982,-34.04362q20.7188,-23.21394 37.12662,-49.64151q8.56969,-13.65142 14.46136,-30.0723q0.31353,-0.88832 0.60092,0q6.32276,19.92192 5.97004,41.09794q-0.30046,17.91013 -1.65907,28.8182z" />
      <path stroke="null" id="svg_4"
        d="m310.54982,656.23961l0.10451,0.32659q-2.41676,1.71133 -7.23721,3.26589q-25.33023,8.19085 -49.64151,9.19674q-50.32081,2.02485 -95.69054,-19.37325q-46.70221,-22.48238 -77.64977,-65.99708q-34.37021,-48.34822 -47.25088,-104.20798q-5.93085,-25.7352 -5.78715,-52.14971q0.99283,-71.7973 36.35587,-133.90144q6.76692,-11.28691 14.90552,-21.64631q2.10323,-2.69109 1.56763,0.6793q-5.25155,32.81565 -3.46184,66.36286q2.2208,41.59436 18.90296,83.29323q33.02467,82.52248 90.02096,150.67505q32.52825,38.90327 76.38261,64.3772q22.78284,13.23338 48.47885,19.09892zm381.88691,-240.696q0.86219,25.42168 -2.66497,47.0288q-8.88322,54.42277 -38.2109,103.14983q-14.18702,22.7959 -32.38455,42.50881q-31.58768,32.50213 -74.08342,48.38741q-53.76959,19.7129 -110.06045,8.06021q-12.00541,-2.92624 -23.48827,-7.45929q-0.61399,-0.24821 0.01306,-0.47029l18.57638,-6.66241q46.12741,-18.15834 81.89543,-53.69121q18.56331,-18.4588 33.0116,-36.82616q36.86535,-46.36256 63.52807,-99.26996q13.50772,-26.78029 23.01798,-55.21965q6.53178,-19.51695 9.79767,-39.83078q7.68137,-44.36383 0.65318,-88.83218q-0.06532,-1.86809 -0.52254,-3.67086q-0.97977,-3.95826 1.63294,-0.65318q11.7572,14.82714 20.01337,31.87507q25.6307,52.84208 29.27543,111.57582zm-331.21338,-140.48547q9.35351,39.45194 27.35508,75.57267q4.38935,8.8179 12.61939,22.90041q11.20853,19.15117 22.6522,38.17171q14.2654,23.71035 24.32434,49.48475q10.60761,27.15913 11.70495,53.95248q0.5748,13.79511 -1.93341,25.98341q-4.84658,23.59278 -19.24262,43.01829q-12.67165,17.11326 -32.08409,27.73393q-20.13094,10.28102 -42.78314,11.43061q-13.53384,0.03919 -26.72803,-2.99155q-30.73855,-8.6742 -50.42532,-32.9071q-20.10481,-24.72931 -23.21394,-57.25756q-2.18161,-22.76978 3.10913,-45.03007q4.31097,-18.11915 10.46391,-32.26698q13.155,-30.216 32.82871,-60.90229q11.19547,-17.47904 23.64503,-42.05158q17.87094,-34.6968 26.53208,-72.75094q0.01306,-0.03919 0.09144,-1.00589q0.07838,-0.91445 1.08428,-1.08428z" />
    </clipPath>
  </defs>
  <rect width="720" height="720" fill="url(#prefix__a)" clip-path="url(#cut-off-bottom)" />
</svg>