<?xml version="1.0" encoding="utf-8"?>
<svg version="1.1" viewBox="0 0 680 680" xmlns="http://www.w3.org/2000/svg">
  <rect x="113.698" y="214.419" width="32.238" height="99.066" style="fill: rgb(213, 232, 253); pointer-events: none;"/>
  <ellipse style="fill: rgb(25, 59, 102); pointer-events: none;" cx="129.849" cy="174.576" rx="45.618" ry="44.965"/>
  <rect x="82.975" y="309.429" width="513.758" height="150.779" style="fill: rgb(25, 58, 102); pointer-events: none;" rx="46.27" ry="46.27"/>
  <path id="svg_29" d="M 339.98 218.53 L 340 429.24 C 339.88 429.273 339.76 429.307 339.64 429.34 C 330.327 429.447 320.93 429.55 311.45 429.65 C 304.31 429.723 299.32 432.673 296.48 438.5 C 292.86 445.94 297.08 455.12 304.19 458.23 C 306.23 459.123 309.657 459.547 314.47 459.5 C 322.97 459.42 331.51 459.493 340.09 459.72 L 340.07 550.55 L 256.18 550.57 C 255.907 550.57 255.763 550.707 255.75 550.98 C 255.75 551.073 255.75 551.17 255.75 551.27 C 255.75 551.412 255.632 551.526 255.49 551.52 C 202.3 548.32 160.61 513.79 147.21 462.07 C 147.05 461.48 147.643 459.653 147.59 459.38 C 145.877 451.073 145.32 327.013 145.92 322.1 C 146.48 317.493 146.98 312.843 147.42 308.15 C 149.007 298.37 150.433 291.98 151.7 288.98 C 165.77 255.76 190.02 232.14 224.51 220.28 C 225.943 219.787 228.023 219.557 230.75 219.59 C 241.55 219.72 253.65 218.71 263.1 218.64 C 288.74 218.447 314.367 218.41 339.98 218.53 Z M 250.08 384.42 C 250.81 401.98 274.73 404.82 279.25 388.86 C 279.717 387.2 279.973 382.93 280.02 376.05 C 280.06 369.397 280 362.74 279.84 356.08 C 279.767 353.087 279.373 350.753 278.66 349.08 C 273.54 337.1 257 336.35 251.63 348.47 C 250.697 350.59 250.19 353.517 250.11 357.25 C 249.85 369.523 249.84 378.58 250.08 384.42 Z" fill="#edf5ff"/>
  <path id="svg_30" d="M 339.98 218.53 C 385.153 218.443 416.807 218.45 434.94 218.55 C 442.64 218.59 453.66 219.34 460.82 222.14 C 497.79 236.59 526.65 268.92 532.61 307.98 C 532.67 308.373 532.9 308.577 533.3 308.59 C 533.3 308.59 531.71 309.713 531.83 310.08 C 533.937 316.64 534.99 322.363 534.99 327.25 C 535.01 366.23 535.007 405.21 534.98 444.19 C 534.98 447.143 534.13 452.223 532.43 459.43 C 532.383 459.637 532.39 459.813 532.45 459.96 C 532.57 460.22 532.74 460.313 532.96 460.24 C 532.947 460.687 533.01 460.947 533.15 461.02 C 520.18 513.03 479.69 546.69 425.96 551.32 C 425.647 551.347 425.377 551.25 425.15 551.03 L 424.74 550.62 C 424.687 550.567 424.62 550.54 424.54 550.54 L 340.07 550.55 L 340.09 459.72 C 340.697 459.82 341.34 459.787 342.02 459.62 C 350.907 459.46 359.817 459.437 368.75 459.55 C 390.11 459.84 390.84 429.66 368.25 429.53 C 358.837 429.477 349.42 429.38 340 429.24 L 339.98 218.53 Z M 400.26 384.42 C 400.57 400.91 422.39 404.8 428.4 391 C 429.467 388.547 429.997 383.94 429.99 377.18 C 429.983 369.727 429.89 362.273 429.71 354.82 C 429.28 337.25 406.38 334.31 400.9 349.81 C 400.287 351.557 399.983 354.223 399.99 357.81 C 400.003 366.69 400.093 375.56 400.26 384.42 Z" fill="#d5e8fd"/>
  <path id="svg_35" d="m279.25,388.86c-4.52,15.96 -28.44,13.12 -29.17,-4.44q-0.36,-8.76 0.03,-27.17q0.12,-5.6 1.52,-8.78c5.37,-12.12 21.91,-11.37 27.03,0.61q1.07,2.51 1.18,7q0.24,9.99 0.18,19.97q-0.07,10.32 -0.77,12.81z" fill="#19c0ef"/>
  <path id="svg_36" d="m428.4,391c-6.01,13.8 -27.83,9.91 -28.14,-6.58q-0.25,-13.29 -0.27,-26.61q-0.01,-5.38 0.91,-8c5.48,-15.5 28.38,-12.56 28.81,5.01q0.27,11.18 0.28,22.36q0.01,10.14 -1.59,13.82z" fill="#19c0ef"/>
  <path id="svg_39" d="m339.64,429.34c-0.47,8.59 0.27,16.91 -0.08,28.93q-0.04,1.55 2.46,1.35q-1.02,0.25 -1.93,0.1q-12.87,-0.34 -25.62,-0.22q-7.22,0.07 -10.28,-1.27c-7.11,-3.11 -11.33,-12.29 -7.71,-19.73q4.26,-8.74 14.97,-8.85q14.22,-0.15 28.19,-0.31z" fill="#214c80"/>
  <path id="svg_40" d="m339.64,429.34q0.18,-0.05 0.36,-0.1q14.13,0.21 28.25,0.29c22.59,0.13 21.86,30.31 0.5,30.02q-13.4,-0.17 -26.73,0.07q-2.5,0.2 -2.46,-1.35c0.35,-12.02 -0.39,-20.34 0.08,-28.93z" fill="#193b66"/>
</svg>